# xmcd
#
# Track frame offsets:
#	150
#	13207
#	27602
#	48162
#	64805
#	85232
#	104272
#	120129
#	133232
#	146740
#	159452
#	174060
#	185332
#	201222
#	213612
#
# Disc length: 3048 seconds
#
# Revision: 0
# Processed by: cddbd v1.4PL0 Copyright (c) Steve Scherf et al.
# Submitted via: EasyCDDAExtractor 4.6.9.1
#
DISCID=d10be60f
DTITLE=Bohnsack, Jo - EuroBoogie
DYEAR=2002
DGENRE=Blues
TTITLE0=Warm Up
TTITLE1=Welcome Boogie
TTITLE2=Help Me
TTITLE3=Girls like it
TTITLE4=Sky is Crying
TTITLE5=Just to play for You
TTITLE6=Jack´s Boogie
TTITLE7=To Know You
TTITLE8=Bright Lights, Big City
TTITLE9=I got a Woman
TTITLE10=No One
TTITLE11=I can see clearly Now
TTITLE12=Cliff´s Blues
TTITLE13=Saturday Night Fish Fry
TTITLE14=What´d I Say
EXTD=
EXTT0=
EXTT1=
EXTT2=
EXTT3=
EXTT4=
EXTT5=
EXTT6=
EXTT7=
EXTT8=
EXTT9=
EXTT10=
EXTT11=
EXTT12=
EXTT13=
EXTT14=
PLAYORDER=
